<svg width="281" height="158" viewBox="0 0 281 158" fill="none" xmlns="http://www.w3.org/2000/svg">
<path d="M119.602 41.0017H124.684L125.465 69.0282H118.926L119.602 41.0017ZM115.36 70.5852H164.665V73.6992H168.558V78.3703H171.153V81.4844H108.872V78.3703H111.467V73.6992H115.36V70.5852ZM167.26 32.9239L140.015 19.2034L112.765 32.9239V34.7736H167.26V32.9239ZM117.955 36.3306H162.07V39.4447H117.955V36.3306ZM155.24 41.0017H160.319L161.106 69.0282H154.559L155.24 41.0017ZM143.365 41.0017H148.444L149.222 69.0282H142.681L143.365 41.0017ZM131.488 41.0017H136.568L137.341 69.0282H130.803L131.488 41.0017Z" fill="white"/>
<path d="M21.5389 136.397V116.685H13.9717V113.976H32.4069V116.685H24.8397V136.397H21.5389ZM35.6844 136.397V113.976H38.923V136.397H35.6844ZM46.9573 136.397V126.183C46.9573 125.082 46.677 124.262 46.1165 123.723C45.5767 123.183 44.7671 122.913 43.6875 122.913C42.7533 122.913 41.9229 123.12 41.1963 123.536C40.4904 123.951 39.9299 124.522 39.5147 125.248C39.1203 125.975 38.923 126.837 38.923 127.833L38.5182 124.034C39.0372 122.851 39.8365 121.916 40.916 121.231C41.9956 120.546 43.2516 120.204 44.684 120.204C46.3864 120.204 47.7254 120.681 48.7012 121.636C49.6769 122.591 50.1648 123.857 50.1648 125.435V136.397H46.9573ZM61.4203 136.708C59.8218 136.708 58.4101 136.355 57.1852 135.649C55.9811 134.944 55.0365 133.968 54.3514 132.722C53.6664 131.477 53.3238 130.044 53.3238 128.425C53.3238 126.785 53.656 125.352 54.3203 124.127C55.0054 122.882 55.9604 121.916 57.1852 121.231C58.4101 120.546 59.8114 120.204 61.3892 120.204C62.9255 120.204 64.2541 120.536 65.3752 121.2C66.517 121.844 67.3889 122.747 67.991 123.909C68.6138 125.072 68.9252 126.453 68.9252 128.051C68.9252 128.3 68.9148 128.539 68.8941 128.767C68.8941 128.975 68.8733 129.193 68.8318 129.421H55.5036V126.992H66.5585L65.7489 127.958C65.7489 126.255 65.3648 124.958 64.5967 124.065C63.8285 123.172 62.7594 122.726 61.3892 122.726C59.9152 122.726 58.7423 123.235 57.8703 124.252C57.0192 125.248 56.5936 126.639 56.5936 128.425C56.5936 130.231 57.0192 131.643 57.8703 132.66C58.7423 133.677 59.9464 134.186 61.4826 134.186C62.4168 134.186 63.2265 133.999 63.9116 133.625C64.5967 133.231 65.1053 132.66 65.4375 131.912H68.4892C67.9702 133.407 67.0879 134.58 65.8423 135.431C64.6174 136.283 63.1434 136.708 61.4203 136.708ZM78.4121 136.397V113.976H83.5191L90.9929 135.587H89.3113L96.7227 113.976H101.892V136.397H98.6223V115.315H99.1205L91.8959 136.397H88.2214L80.9968 115.501H81.495V136.397H78.4121ZM113.331 136.708C111.733 136.708 110.321 136.355 109.096 135.649C107.892 134.944 106.948 133.968 106.262 132.722C105.577 131.477 105.235 130.044 105.235 128.425C105.235 126.785 105.567 125.352 106.231 124.127C106.916 122.882 107.871 121.916 109.096 121.231C110.321 120.546 111.722 120.204 113.3 120.204C114.836 120.204 116.165 120.536 117.286 121.2C118.428 121.844 119.3 122.747 119.902 123.909C120.525 125.072 120.836 126.453 120.836 128.051C120.836 128.3 120.826 128.539 120.805 128.767C120.805 128.975 120.784 129.193 120.743 129.421H107.415V126.992H118.469L117.66 127.958C117.66 126.255 117.276 124.958 116.508 124.065C115.74 123.172 114.67 122.726 113.3 122.726C111.826 122.726 110.653 123.235 109.781 124.252C108.93 125.248 108.505 126.639 108.505 128.425C108.505 130.231 108.93 131.643 109.781 132.66C110.653 133.677 111.857 134.186 113.394 134.186C114.328 134.186 115.137 133.999 115.823 133.625C116.508 133.231 117.016 132.66 117.348 131.912H120.4C119.881 133.407 118.999 134.58 117.753 135.431C116.528 136.283 115.054 136.708 113.331 136.708ZM130.633 136.708C128.785 136.708 127.425 136.283 126.553 135.431C125.702 134.559 125.277 133.283 125.277 131.601V116.872L128.484 115.657V131.632C128.484 132.463 128.702 133.075 129.138 133.47C129.574 133.864 130.28 134.061 131.256 134.061C131.629 134.061 131.961 134.03 132.252 133.968C132.543 133.905 132.792 133.833 132.999 133.75V136.366C132.771 136.469 132.449 136.552 132.034 136.615C131.619 136.677 131.152 136.708 130.633 136.708ZM122.1 123.1V120.515H132.999V123.1H122.1ZM142.244 136.397V113.976H147.351L154.825 135.587H153.143L160.555 113.976H165.724V136.397H162.454V115.315H162.952L155.728 136.397H152.053L144.829 115.501H145.327V136.397H142.244ZM175.482 136.708C174.423 136.708 173.489 136.49 172.679 136.054C171.869 135.597 171.236 134.975 170.779 134.186C170.343 133.397 170.125 132.494 170.125 131.477V120.515H173.364V130.729C173.364 131.829 173.634 132.649 174.174 133.189C174.714 133.729 175.482 133.999 176.478 133.999C177.371 133.999 178.16 133.791 178.845 133.376C179.551 132.961 180.101 132.39 180.495 131.663C180.91 130.916 181.118 130.054 181.118 129.079L181.523 132.878C181.004 134.04 180.205 134.975 179.125 135.68C178.066 136.366 176.852 136.708 175.482 136.708ZM181.243 136.397V132.66H181.118V120.515H184.326V136.397H181.243ZM194.471 136.708C192.395 136.708 190.745 136.251 189.52 135.338C188.295 134.424 187.599 133.137 187.433 131.477H190.423C190.568 132.39 190.983 133.096 191.668 133.594C192.374 134.072 193.329 134.31 194.533 134.31C195.592 134.31 196.402 134.123 196.962 133.75C197.523 133.376 197.803 132.847 197.803 132.162C197.803 131.663 197.637 131.248 197.305 130.916C196.993 130.563 196.371 130.272 195.436 130.044L192.883 129.452C191.284 129.058 190.091 128.477 189.302 127.709C188.534 126.92 188.15 125.954 188.15 124.812C188.15 123.38 188.679 122.259 189.738 121.449C190.817 120.619 192.291 120.204 194.16 120.204C196.007 120.204 197.492 120.619 198.613 121.449C199.755 122.28 200.398 123.442 200.543 124.937H197.554C197.429 124.19 197.066 123.619 196.464 123.224C195.883 122.809 195.083 122.601 194.066 122.601C193.111 122.601 192.374 122.778 191.855 123.131C191.357 123.463 191.108 123.93 191.108 124.532C191.108 125.03 191.295 125.446 191.668 125.778C192.063 126.11 192.706 126.39 193.599 126.619L196.215 127.273C197.73 127.646 198.872 128.259 199.64 129.11C200.408 129.94 200.793 130.947 200.793 132.13C200.793 133.563 200.232 134.684 199.111 135.494C198.011 136.303 196.464 136.708 194.471 136.708ZM211.193 136.708C209.594 136.708 208.182 136.355 206.958 135.649C205.754 134.944 204.809 133.968 204.124 132.722C203.439 131.477 203.096 130.044 203.096 128.425C203.096 126.785 203.428 125.352 204.093 124.127C204.778 122.882 205.733 121.916 206.958 121.231C208.182 120.546 209.584 120.204 211.162 120.204C212.698 120.204 214.027 120.536 215.148 121.2C216.289 121.844 217.161 122.747 217.763 123.909C218.386 125.072 218.698 126.453 218.698 128.051C218.698 128.3 218.687 128.539 218.666 128.767C218.666 128.975 218.646 129.193 218.604 129.421H205.276V126.992H216.331L215.521 127.958C215.521 126.255 215.137 124.958 214.369 124.065C213.601 123.172 212.532 122.726 211.162 122.726C209.688 122.726 208.515 123.235 207.643 124.252C206.792 125.248 206.366 126.639 206.366 128.425C206.366 130.231 206.792 131.643 207.643 132.66C208.515 133.677 209.719 134.186 211.255 134.186C212.189 134.186 212.999 133.999 213.684 133.625C214.369 133.231 214.878 132.66 215.21 131.912H218.262C217.743 133.407 216.86 134.58 215.615 135.431C214.39 136.283 212.916 136.708 211.193 136.708ZM227.18 136.708C226.121 136.708 225.187 136.49 224.377 136.054C223.567 135.597 222.934 134.975 222.478 134.186C222.042 133.397 221.824 132.494 221.824 131.477V120.515H225.062V130.729C225.062 131.829 225.332 132.649 225.872 133.189C226.412 133.729 227.18 133.999 228.176 133.999C229.069 133.999 229.858 133.791 230.543 133.376C231.249 132.961 231.799 132.39 232.193 131.663C232.609 130.916 232.816 130.054 232.816 129.079L233.221 132.878C232.702 134.04 231.903 134.975 230.823 135.68C229.764 136.366 228.55 136.708 227.18 136.708ZM232.941 136.397V132.66H232.816V120.515H236.024V136.397H232.941ZM240.561 136.397V120.515H243.644V124.252H243.8V136.397H240.561ZM251.273 136.397V126.027C251.273 124.947 251.024 124.159 250.526 123.66C250.028 123.162 249.311 122.913 248.377 122.913C247.505 122.913 246.716 123.12 246.01 123.536C245.325 123.93 244.786 124.491 244.391 125.217C243.997 125.923 243.8 126.764 243.8 127.74L243.395 124.034C243.914 122.851 244.692 121.916 245.73 121.231C246.789 120.546 247.972 120.204 249.28 120.204C250.858 120.204 252.114 120.66 253.048 121.574C254.003 122.487 254.481 123.691 254.481 125.186V136.397H251.273ZM261.986 136.397V126.027C261.986 124.947 261.726 124.159 261.207 123.66C260.709 123.162 259.993 122.913 259.058 122.913C258.207 122.913 257.429 123.12 256.723 123.536C256.038 123.93 255.488 124.491 255.072 125.217C254.678 125.923 254.481 126.764 254.481 127.74L253.827 124.034C254.367 122.851 255.176 121.916 256.256 121.231C257.356 120.546 258.581 120.204 259.93 120.204C261.529 120.204 262.806 120.671 263.761 121.605C264.716 122.518 265.193 123.743 265.193 125.28V136.397H261.986Z" fill="white"/>
</svg>
